<svg fill="#fff" viewBox="3998.229 -1207.831 17.208 18.566" width="18" xmlns="http://www.w3.org/2000/svg">
  <g fill="#fff" transform="translate(3693.229 -1230.831)">
    <path d="M6.84,11.781v2.445l-4.528,1.63A2.724,2.724,0,0,0,.5,18.393v1.721H17.708V18.393A2.638,2.638,0,0,0,15.9,15.857l-4.528-1.63V11.6" transform="translate(304.5 21.453)"/>
    <path
      d="M4.529,10.868C2.032,10.868,0,8.43,0,5.434a6.582,6.582,0,0,1,.062-.906H8.994a6.582,6.582,0,0,1,.062.906C9.057,8.43,7.026,10.868,4.529,10.868ZM8.451,2.716H.606A4.472,4.472,0,0,1,4.529,0,4.471,4.471,0,0,1,8.45,2.715Z"
      transform="translate(308.985 23)"/>
  </g>
</svg>
