<svg xmlns="http://www.w3.org/2000/svg" viewBox="3777 -1211.629 165.32 28.82">
  <defs>
    <style>
      .cls-1, .cls-2 {
        fill: #fff;
      }

      .cls-2 {
        stroke: #fff;
        stroke-miterlimit: 10;
        stroke-width: 0.5px;
      }
    </style>
  </defs>
  <g id="bc-logo" transform="translate(3777 -1211.579)">
    <path id="Path_1" data-name="Path 1" class="cls-1" d="M15.458,14.417a7.79,7.79,0,0,1-.451,2.821,8.116,8.116,0,0,1-1.354,2.369A6.493,6.493,0,0,1,11.509,21.3a5.751,5.751,0,0,1-2.821.564,6.693,6.693,0,0,1-2.6-.564,3.983,3.983,0,0,1-1.918-1.692h0v1.805H0V.2H4.626V9h0A11.093,11.093,0,0,1,6.318,7.647a5.883,5.883,0,0,1,2.6-.564,6.817,6.817,0,0,1,2.708.564,5.514,5.514,0,0,1,2.031,1.58A8.116,8.116,0,0,1,15.006,11.6,7.79,7.79,0,0,1,15.458,14.417Zm-4.4,0a5.663,5.663,0,0,0-.226-1.354,2.341,2.341,0,0,0-.677-1.128,3.513,3.513,0,0,0-1.015-.79,2.406,2.406,0,0,0-1.354-.338,3.123,3.123,0,0,0-1.467.338,2.457,2.457,0,0,0-1.015.79,2.341,2.341,0,0,0-.677,1.128A5.663,5.663,0,0,0,4.4,14.417a5.663,5.663,0,0,0,.226,1.354A2.341,2.341,0,0,0,5.3,16.9a6.2,6.2,0,0,0,1.015.79,3.123,3.123,0,0,0,1.467.338,3.123,3.123,0,0,0,1.467-.338,2.457,2.457,0,0,0,1.015-.79,9.923,9.923,0,0,0,.677-1.128A5.493,5.493,0,0,0,11.057,14.417Z"/>
    <path id="Path_2" data-name="Path 2" class="cls-1" d="M31.455,13.847v1.128H21.3a1.575,1.575,0,0,0,.338,1.015,2.636,2.636,0,0,0,.79.79,4.573,4.573,0,0,0,1.015.564,4.056,4.056,0,0,0,1.241.226,3.076,3.076,0,0,0,1.805-.451A5.428,5.428,0,0,0,27.732,16.1l3.159,2.031a7.246,7.246,0,0,1-2.6,2.257,8.175,8.175,0,0,1-3.723.79,8.413,8.413,0,0,1-2.934-.451,6.9,6.9,0,0,1-2.482-1.467,8.453,8.453,0,0,1-1.692-2.257,6.885,6.885,0,0,1-.564-3.159,8.614,8.614,0,0,1,.564-3.046,6.721,6.721,0,0,1,1.58-2.369,6.443,6.443,0,0,1,2.369-1.467A8.475,8.475,0,0,1,24.347,6.4a7.856,7.856,0,0,1,2.821.564,6.012,6.012,0,0,1,2.257,1.467A8.388,8.388,0,0,1,30.891,10.8,6.137,6.137,0,0,1,31.455,13.847ZM27.28,12.041a3.064,3.064,0,0,0-.677-1.918,2.414,2.414,0,0,0-2.031-.79,4.056,4.056,0,0,0-1.241.226,4.573,4.573,0,0,0-1.015.564,6.259,6.259,0,0,0-.677.9,3.294,3.294,0,0,0-.226,1.015Z" transform="translate(2.168 0.795)"/>
    <path id="Path_3" data-name="Path 3" class="cls-1" d="M40.083,10.508v5.3a2.56,2.56,0,0,0,.338,1.467c.226.338.677.451,1.354.451h.677c.226,0,.451-.113.677-.113V21a9.152,9.152,0,0,1-1.241.338,6.433,6.433,0,0,1-1.467.113,7.5,7.5,0,0,1-2.369-.338,3.825,3.825,0,0,1-1.58-1.015,4.168,4.168,0,0,1-.79-1.58,10.12,10.12,0,0,1-.226-2.031v-5.98H33.2V7.123h2.257V3.4H39.97V7.123h3.272v3.385Z" transform="translate(4.26 0.411)"/>
    <path id="Path_4" data-name="Path 4" class="cls-2" d="M57.855,9.344a4.464,4.464,0,0,0-1.692-1.128,6.589,6.589,0,0,0-2.031-.451,6.149,6.149,0,0,0-2.482.564,7.412,7.412,0,0,0-1.918,1.354,6.142,6.142,0,0,0-1.241,2.031,8.788,8.788,0,0,0-.451,2.369,5.549,5.549,0,0,0,.451,2.369,4.722,4.722,0,0,0,1.241,2.031,5.9,5.9,0,0,0,1.918,1.354,5.74,5.74,0,0,0,2.482.451,7.667,7.667,0,0,0,2.144-.338,4.417,4.417,0,0,0,1.805-1.128l.451.338A4.722,4.722,0,0,1,56.5,20.4a8.589,8.589,0,0,1-2.369.338,6.62,6.62,0,0,1-2.6-.451,6.4,6.4,0,0,1-2.031-1.354,6.939,6.939,0,0,1-1.354-2.144,7.193,7.193,0,0,1-.451-2.708,6.827,6.827,0,0,1,.451-2.708,6.939,6.939,0,0,1,1.354-2.144A6.317,6.317,0,0,1,54.131,7.2a5.892,5.892,0,0,1,2.369.451,5.631,5.631,0,0,1,1.918,1.241Z" transform="translate(6.12 0.898)"/>
    <path id="Path_5" data-name="Path 5" class="cls-2" d="M63.564,11.934a6.894,6.894,0,0,1,.79-1.58A6.466,6.466,0,0,1,65.6,9.114a6.079,6.079,0,0,1,1.467-.79,7.619,7.619,0,0,1,1.58-.226,4.475,4.475,0,0,1,2.257.451,5.343,5.343,0,0,1,1.467,1.241,8.733,8.733,0,0,1,.79,1.805,12.433,12.433,0,0,1,.226,2.031v7.785h-.564V13.627a8.539,8.539,0,0,0-.113-1.692,3.956,3.956,0,0,0-.677-1.58,4.33,4.33,0,0,0-1.241-1.241,3.864,3.864,0,0,0-2.031-.451,4.425,4.425,0,0,0-2.031.451,4.3,4.3,0,0,0-1.58,1.241,8.662,8.662,0,0,0-1.128,2.031,9.612,9.612,0,0,0-.451,2.6v6.431H63V.2h.564V11.934Z" transform="translate(8.083)"/>
    <path id="Path_6" data-name="Path 6" class="cls-2" d="M79.877,3.467a.855.855,0,0,1-.451-.226.862.862,0,0,1-.226-.564.586.586,0,0,1,.226-.451c.226-.113.338-.226.451-.226a.8.8,0,0,1,.677.677.862.862,0,0,1-.226.564A.586.586,0,0,1,79.877,3.467Zm-.226,17.714V8.318h.564V21.181Z" transform="translate(10.161 0.231)"/>
    <path id="Path_7" data-name="Path 7" class="cls-2" d="M96.955,9.344a4.464,4.464,0,0,0-1.692-1.128,6.589,6.589,0,0,0-2.031-.451,6.149,6.149,0,0,0-2.482.564,7.413,7.413,0,0,0-1.918,1.354,6.142,6.142,0,0,0-1.241,2.031,8.789,8.789,0,0,0-.451,2.369,5.549,5.549,0,0,0,.451,2.369,4.722,4.722,0,0,0,1.241,2.031,5.9,5.9,0,0,0,1.918,1.354,5.74,5.74,0,0,0,2.482.451,7.667,7.667,0,0,0,2.144-.338,4.417,4.417,0,0,0,1.805-1.128l.451.338A4.722,4.722,0,0,1,95.6,20.4a8.589,8.589,0,0,1-2.369.338,6.62,6.62,0,0,1-2.6-.451,6.4,6.4,0,0,1-2.031-1.354,6.94,6.94,0,0,1-1.354-2.144,7.192,7.192,0,0,1-.451-2.708,6.827,6.827,0,0,1,.451-2.708,6.94,6.94,0,0,1,1.354-2.144A6.317,6.317,0,0,1,93.231,7.2a5.892,5.892,0,0,1,2.369.451,5.631,5.631,0,0,1,1.918,1.241Z" transform="translate(11.136 0.898)"/>
    <path id="Path_8" data-name="Path 8" class="cls-2" d="M111.016,17.68a7.993,7.993,0,0,0,.113,1.58c0,.564.113,1.015.113,1.354h-.564c0-.226-.113-.451-.113-.677a1.92,1.92,0,0,0-.113-.79v-1.58h-.113a4.544,4.544,0,0,1-1.918,2.6,5.592,5.592,0,0,1-2.934.9,7.619,7.619,0,0,1-1.58-.226,2.574,2.574,0,0,1-1.354-.677,3.2,3.2,0,0,1-1.015-1.128,3.768,3.768,0,0,1-.338-1.692,3.581,3.581,0,0,1,.677-2.257,4.488,4.488,0,0,1,1.805-1.354,5.136,5.136,0,0,1,2.257-.564,15.89,15.89,0,0,1,2.257-.113h2.257V12.039a3.867,3.867,0,0,0-1.128-3.159,4.516,4.516,0,0,0-3.046-1.015,4.579,4.579,0,0,0-2.144.451,6.061,6.061,0,0,0-1.805,1.128l-.338-.451a6.142,6.142,0,0,1,2.031-1.241,8.018,8.018,0,0,1,2.257-.451,5.025,5.025,0,0,1,3.5,1.128c.9.79,1.241,1.918,1.241,3.611Zm-.564-4.175h-2.031a15.891,15.891,0,0,0-2.257.113,6.677,6.677,0,0,0-2.144.564,3.364,3.364,0,0,0-1.58,1.128,2.654,2.654,0,0,0-.677,1.918A2.823,2.823,0,0,0,102.1,18.7a3.892,3.892,0,0,0,.9,1.015,4.171,4.171,0,0,0,1.241.564,5.06,5.06,0,0,0,1.241.113,5.245,5.245,0,0,0,2.369-.564,4.594,4.594,0,0,0,1.58-1.354,5.184,5.184,0,0,0,.79-1.805,12.564,12.564,0,0,0,.226-1.918V13.506Z" transform="translate(12.984 0.911)"/>
    <path id="Path_9" data-name="Path 9" class="cls-2" d="M128.6,17.116h0a11.146,11.146,0,0,1-1.015,1.692,13.526,13.526,0,0,1-1.354,1.241,5.9,5.9,0,0,1-1.692.79,9.875,9.875,0,0,1-1.805.226,6.693,6.693,0,0,1-2.6-.564,5.223,5.223,0,0,1-2.031-1.467,6.939,6.939,0,0,1-1.354-2.144,6.827,6.827,0,0,1-.451-2.708,6.827,6.827,0,0,1,.451-2.708,6.94,6.94,0,0,1,1.354-2.144A6.317,6.317,0,0,1,122.731,7.3a5.97,5.97,0,0,1,3.385,1.015,6.236,6.236,0,0,1,2.369,2.934h.113V7.638h.564V19.824a12.3,12.3,0,0,1-.339,2.934,8.192,8.192,0,0,1-1.015,2.482,5.617,5.617,0,0,1-1.918,1.692,6.09,6.09,0,0,1-3.046.677,7.716,7.716,0,0,1-3.272-.677,7.8,7.8,0,0,1-2.482-1.805l.451-.451a7.361,7.361,0,0,0,2.369,1.805,7.856,7.856,0,0,0,2.821.564,6.967,6.967,0,0,0,2.821-.564,4.953,4.953,0,0,0,1.805-1.58,7.878,7.878,0,0,0,.9-2.257,10.986,10.986,0,0,0,.226-2.708V17.116ZM116.864,14.07a5.549,5.549,0,0,0,.451,2.369,5.916,5.916,0,0,0,1.128,2.031,5.431,5.431,0,0,0,1.805,1.354,5.549,5.549,0,0,0,2.369.451,5.233,5.233,0,0,0,2.369-.451,7.412,7.412,0,0,0,1.918-1.354,6.141,6.141,0,0,0,1.241-2.031,6.072,6.072,0,0,0,.451-2.482,6.072,6.072,0,0,0-.451-2.482,6.142,6.142,0,0,0-1.241-2.031,5.9,5.9,0,0,0-1.918-1.354,5.787,5.787,0,0,0-4.739.113,5.431,5.431,0,0,0-1.805,1.354,5.916,5.916,0,0,0-1.128,2.031A10.529,10.529,0,0,0,116.864,14.07Z" transform="translate(14.921 0.911)"/>
    <path id="Path_10" data-name="Path 10" class="cls-2" d="M147.814,14.057a7.791,7.791,0,0,1-.451,2.821,6.939,6.939,0,0,1-1.354,2.144,7.227,7.227,0,0,1-2.144,1.467,8.349,8.349,0,0,1-5.416,0,5.605,5.605,0,0,1-2.144-1.467,6.94,6.94,0,0,1-1.354-2.144,7.408,7.408,0,0,1-.451-2.821,6.828,6.828,0,0,1,.451-2.708,6.939,6.939,0,0,1,1.354-2.144,6.94,6.94,0,0,1,2.144-1.354,8.349,8.349,0,0,1,5.416,0,6.939,6.939,0,0,1,2.144,1.354,6.939,6.939,0,0,1,1.354,2.144A6.828,6.828,0,0,1,147.814,14.057Zm-.677,0a6.072,6.072,0,0,0-.451-2.482,4.722,4.722,0,0,0-1.241-2.031,5.9,5.9,0,0,0-1.918-1.354,6.271,6.271,0,0,0-2.6-.451,6.62,6.62,0,0,0-2.6.451,5.9,5.9,0,0,0-1.918,1.354,6.143,6.143,0,0,0-1.241,2.031,8.8,8.8,0,0,0-.451,2.482,6.072,6.072,0,0,0,.451,2.482,4.721,4.721,0,0,0,1.241,2.031,5.9,5.9,0,0,0,1.918,1.354,6.271,6.271,0,0,0,2.6.451,6.62,6.62,0,0,0,2.6-.451,5.9,5.9,0,0,0,1.918-1.354,6.142,6.142,0,0,0,1.241-2.031A6.072,6.072,0,0,0,147.137,14.057Z" transform="translate(17.256 0.924)"/>
  </g>
</svg>
